<?xml version="1.0" encoding="utf-8"?>
<!-- Generator: Adobe Illustrator 25.0.1, SVG Export Plug-In . SVG Version: 6.00 Build 0)  -->
<svg version="1.1" id="Layer_1" xmlns="http://www.w3.org/2000/svg" xmlns:xlink="http://www.w3.org/1999/xlink" x="0px" y="0px"
	 viewBox="0 0 116.7 116.7" style="enable-background:new 0 0 116.7 116.7;" xml:space="preserve">
<style type="text/css">
	.st0{fill:none;stroke:#F8EE9A;}
	.st1{fill:#005D44;}
</style>
<path class="st0" d="M3.4,58.4l55-55l55,55l-55,55L3.4,58.4z"/>
<g id="kuEUs2.tif">
	<g>
		<path class="st1" d="M49.5,39.2c0-0.4,0-0.7,0-1c0.8,0,1.6-0.1,2.4-0.1c4.7,0,9.4-0.2,14.1,0c4.3,0.2,8.5,1.1,11.7,4.4
			c5.6,5.7,5.3,14.1,0.7,19.6c-3.4,4-7.8,5.9-13,6c-5,0.1-10.1,0-15.1,0c-0.3,0-0.5,0-0.8,0c0-0.4,0-0.6,0-1
			c0.7-0.1,1.5-0.1,2.2-0.2c1.6-0.3,2.3-1.1,2.3-2.7c0-7.4,0-14.7,0-22.1c0-1.8-0.9-2.7-2.8-2.8C50.6,39.2,50.1,39.2,49.5,39.2z
			 M58.2,52.5c0,4,0,8,0,11.9c0,1.8,0.4,2.3,2.2,2.4c1.8,0,3.6,0.1,5.3-0.2c4.9-0.6,8.5-3.1,10.4-7.7c1.3-3.2,1.3-6.5,0.6-9.8
			c-1-5.1-5-9.1-10.1-9.8c-2.5-0.3-5-0.2-7.5-0.3c-0.8,0-1,0.3-1,1.1C58.2,44.2,58.2,48.4,58.2,52.5z"/>
		<path class="st1" d="M37,78.8c1.5-1.6,1.9-3.4,1.9-5.4c0.1-5.9,0.1-11.9,0.1-17.8c0-4.4,0-8.7,0-13.1c0-2.5-0.6-3.1-3.1-3.3
			c-0.4,0-0.7-0.1-1.1-0.1c0-0.3,0-0.6,0-0.9c3.9,0,7.8,0,11.8,0c0,0.2,0,0.5,0.1,0.8c-0.2,0-0.4,0.1-0.6,0.1
			c-2.1,0.2-2.9,1-2.9,3.1c0,8.6,0,17.1,0,25.7c0,3.4-0.9,6.5-2.9,9.3C38.9,79.2,39.5,78.8,37,78.8z"/>
	</g>
</g>
</svg>
