<svg width="50" height="50" viewBox="0 0 50 50" fill="none" xmlns="http://www.w3.org/2000/svg">
<path fill-rule="evenodd" clip-rule="evenodd" d="M19.0417 16C20.1681 16 21.0816 16.8993 21.0816 18.0054C21.0816 19.1133 20.1681 20.0126 19.0417 20.0126C17.9108 20.0126 17 19.1133 17 18.0054C17 16.8993 17.9108 16 19.0417 16ZM17 32.3265H20.5237V21.1932H17V32.3265Z" fill="white"/>
<path fill-rule="evenodd" clip-rule="evenodd" d="M23.1224 21.3737H26.5735V22.8715H26.623C27.1028 22.0089 28.2783 21.1021 30.03 21.1021C33.6727 21.1021 34.3469 23.3696 34.3469 26.3192V32.3265H30.75V27.0013C30.75 25.73 30.723 24.0959 28.8787 24.0959C27.0038 24.0959 26.7184 25.4796 26.7184 26.9076V32.3265H23.1224V21.3737Z" fill="white"/>
<path d="M0.707107 25L25 0.707107L49.2929 25L25 49.2929L0.707107 25Z" stroke="#F8EE9A"/>
</svg>
