<svg width="50" height="50" viewBox="0 0 50 50" fill="none" xmlns="http://www.w3.org/2000/svg">
<path fill-rule="evenodd" clip-rule="evenodd" d="M31.6948 20.2859C32.4491 19.8337 33.0285 19.1191 33.3004 18.2671C32.5962 18.6851 31.8148 18.9896 30.9826 19.1533C30.3166 18.4427 29.3675 18 28.3184 18C26.3027 18 24.6677 19.6342 24.6677 21.6499C24.6677 21.9368 24.7003 22.2142 24.7623 22.4813C21.7284 22.3303 19.0394 20.8773 17.2384 18.6677C16.9244 19.2074 16.7448 19.8337 16.7448 20.5029C16.7448 21.7691 17.3886 22.8866 18.3678 23.5408C17.7701 23.5225 17.2074 23.3572 16.7154 23.0846V23.1307C16.7154 24.8984 17.9736 26.3744 19.6427 26.7098C19.3367 26.7925 19.0132 26.8386 18.681 26.8386C18.4465 26.8386 18.2168 26.8155 17.9942 26.7718C18.4584 28.2224 19.8065 29.2771 21.4041 29.3073C20.1554 30.2866 18.5816 30.87 16.8703 30.87C16.5763 30.87 16.2861 30.8525 16 30.8191C17.6151 31.8532 19.5346 32.458 21.5964 32.458C28.3096 32.458 31.981 26.8974 31.981 22.0735C31.981 21.9154 31.977 21.758 31.9706 21.5998C32.6828 21.0863 33.3012 20.4433 33.7916 19.7113C33.1366 20.0014 32.4332 20.1977 31.6948 20.2859Z" fill="white"/>
<path d="M0.707107 25L25 0.707107L49.2929 25L25 49.2929L0.707107 25Z" stroke="#F8EE9A"/>
</svg>
